<?xml version="1.0" encoding="UTF-8"?>
<!DOCTYPE svg PUBLIC "-//W3C//DTD SVG 1.1//EN"
    "http://www.w3.org/Graphics/SVG/1.1/DTD/svg11.dtd"><svg xmlns="http://www.w3.org/2000/svg" viewBox="0.0 0.0 400.00000000000006 208.0775027027642" height="208.0775" font-size="1" stroke-opacity="1" width="400.0000" xmlns:xlink="http://www.w3.org/1999/xlink" stroke="rgb(0,0,0)" version="1.1"><defs></defs><g stroke-linecap="butt" fill="rgb(0,0,0)" stroke-miterlimit="10.0" stroke-width="1.1539913419509227" fill-opacity="0.0" stroke-opacity="1.0" stroke-linejoin="miter" stroke="rgb(0,0,0)"><path d="M 371.8310,150.1444 l -70.4225,-121.9754 l -70.4225,121.9754 Z"/></g><g stroke-linecap="butt" fill="rgb(255,0,0)" stroke-miterlimit="10.0" stroke-width="0.0" fill-opacity="1.0" stroke-opacity="1.0" stroke-linejoin="miter" stroke="rgb(0,0,0)"><path d="M 304.2254,109.4860 c 0.0000,-1.5557 -1.2612,-2.8169 -2.8169 -2.8169c -1.5557,-0.0000 -2.8169,1.2612 -2.8169 2.8169c -0.0000,1.5557 1.2612,2.8169 2.8169 2.8169c 1.5557,0.0000 2.8169,-1.2612 2.8169 -2.8169Z"/></g><g stroke-linecap="butt" fill="rgb(0,0,0)" stroke-miterlimit="10.0" stroke-width="1.1539913419509227" fill-opacity="0.0" stroke-opacity="1.0" stroke-linejoin="miter" stroke="rgb(0,0,0)"><path d="M 200.0000,39.0634 v 140.8451 "/></g><g stroke-linecap="butt" fill="rgb(255,0,0)" stroke-miterlimit="10.0" stroke-width="0.0" fill-opacity="1.0" stroke-opacity="1.0" stroke-linejoin="miter" stroke="rgb(0,0,0)"><path d="M 202.8169,109.4860 c 0.0000,-1.5557 -1.2612,-2.8169 -2.8169 -2.8169c -1.5557,-0.0000 -2.8169,1.2612 -2.8169 2.8169c -0.0000,1.5557 1.2612,2.8169 2.8169 2.8169c 1.5557,0.0000 2.8169,-1.2612 2.8169 -2.8169Z"/></g><g stroke-linecap="butt" fill="rgb(0,0,0)" stroke-miterlimit="10.0" stroke-width="1.1539913419509227" fill-opacity="0.0" stroke-opacity="1.0" stroke-linejoin="miter" stroke="rgb(0,0,0)"><path d="M 169.0141,150.1444 l -70.4225,-121.9754 l -70.4225,121.9754 Z"/></g><g stroke-linecap="butt" fill="rgb(255,0,0)" stroke-miterlimit="10.0" stroke-width="0.0" fill-opacity="1.0" stroke-opacity="1.0" stroke-linejoin="miter" stroke="rgb(0,0,0)"><path d="M 101.4085,109.4860 c 0.0000,-1.5557 -1.2612,-2.8169 -2.8169 -2.8169c -1.5557,-0.0000 -2.8169,1.2612 -2.8169 2.8169c -0.0000,1.5557 1.2612,2.8169 2.8169 2.8169c 1.5557,0.0000 2.8169,-1.2612 2.8169 -2.8169Z"/></g><g stroke-linecap="butt" fill="rgb(0,0,0)" stroke-dashoffset="0.0" stroke-dasharray="5.769956709754613,5.769956709754613" stroke-miterlimit="10.0" stroke-width="1.1539913419509227" fill-opacity="0.0" stroke-opacity="1.0" stroke-linejoin="miter" stroke="rgb(0,0,0)"><path d="M 59.1549,109.4860 h 281.6901 "/></g></svg>